# xmcd
#
# Track frame offsets:
#	150
#	16217
#	33144
#	48393
#	63665
#	81251
#	98180
#	112722
#	129143
#	147043
#	164343
#	178003
#	196505
#	211715
#	232623
#	248197
#
# Disc length: 3572 seconds
#
# Revision: 1
# Processed by: cddbd v1.5.2PL0 Copyright (c) Steve Scherf et al.
# Submitted via: audiograbber 1.83.01
#
DISCID=bb0df210
DTITLE=Diverse - WMA 12
DYEAR=2012
DGENRE=Pop
TTITLE0=Ligabu - Sotto Bombardamento
TTITLE1=Laura Pausini - Le Cose Che Non Mi Aspetto
TTITLE2=Bagio Antonacci - Ti Dedico Tutto
TTITLE3=Giorgia - Dove Sei
TTITLE4=Tiziano Ferro - La Differenza Tra Me E Te
TTITLE5=Ariza - L'Amore È Un'Altra Cosa
TTITLE6=Moda' - Tappeto  Di Fragole
TTITLE7=Noemi - Sono Solo Parole
TTITLE8=Antonello Venditti - Unica
TTITLE9=Raphael Gualazzi - Love Goes Down Slow
TTITLE10=Annalisa - Senza Riserva
TTITLE11=J-Ax - Dentro Me
TTITLE12=Marco Carta - Mi Hai Guardato Per Caso
TTITLE13=Fiorella Mannoia - Quando L'Angelo Vola
TTITLE14=Alessandra Amoroso - Ti Aspetto
TTITLE15=Lucio Dalla - L'Anno Che Verrà
EXTD=
EXTT0=
EXTT1=
EXTT2=
EXTT3=
EXTT4=
EXTT5=
EXTT6=
EXTT7=
EXTT8=
EXTT9=
EXTT10=
EXTT11=
EXTT12=
EXTT13=
EXTT14=
EXTT15=
PLAYORDER=
